<mxfile host="Electron" agent="Mozilla/5.0 (Macintosh; Intel Mac OS X 10_15_7) AppleWebKit/537.36 (KHTML, like Gecko) draw.io/26.0.16 Chrome/132.0.6834.196 Electron/34.2.0 Safari/537.36" version="26.0.16" pages="2">
  <diagram name="Tree" id="6HPN0pIl7HbCbduKX03D">
    <mxGraphModel dx="954" dy="589" grid="1" gridSize="10" guides="1" tooltips="1" connect="1" arrows="1" fold="1" page="1" pageScale="1" pageWidth="850" pageHeight="1100" math="0" shadow="0">
      <root>
        <mxCell id="0" />
        <mxCell id="1" parent="0" />
        <mxCell id="nEzC0ryJg-wvvqGHbRVC-1" style="edgeStyle=orthogonalEdgeStyle;rounded=0;orthogonalLoop=1;jettySize=auto;html=1;exitX=0.25;exitY=1;exitDx=0;exitDy=0;entryX=0.5;entryY=0;entryDx=0;entryDy=0;" parent="1" source="OFOzZD7KPI6urneeMiuu-1" target="OFOzZD7KPI6urneeMiuu-2" edge="1">
          <mxGeometry relative="1" as="geometry" />
        </mxCell>
        <mxCell id="nEzC0ryJg-wvvqGHbRVC-2" style="edgeStyle=orthogonalEdgeStyle;rounded=0;orthogonalLoop=1;jettySize=auto;html=1;exitX=0.75;exitY=1;exitDx=0;exitDy=0;entryX=0.5;entryY=0;entryDx=0;entryDy=0;" parent="1" source="OFOzZD7KPI6urneeMiuu-1" target="OFOzZD7KPI6urneeMiuu-4" edge="1">
          <mxGeometry relative="1" as="geometry" />
        </mxCell>
        <mxCell id="nEzC0ryJg-wvvqGHbRVC-3" style="edgeStyle=orthogonalEdgeStyle;rounded=0;orthogonalLoop=1;jettySize=auto;html=1;exitX=0.5;exitY=1;exitDx=0;exitDy=0;" parent="1" source="OFOzZD7KPI6urneeMiuu-1" target="OFOzZD7KPI6urneeMiuu-3" edge="1">
          <mxGeometry relative="1" as="geometry" />
        </mxCell>
        <mxCell id="OFOzZD7KPI6urneeMiuu-1" value="Page" style="rounded=1;whiteSpace=wrap;html=1;fillColor=#fff2cc;strokeColor=#d6b656;" parent="1" vertex="1">
          <mxGeometry x="320" y="260" width="120" height="20" as="geometry" />
        </mxCell>
        <mxCell id="OFOzZD7KPI6urneeMiuu-2" value="header" style="rounded=1;whiteSpace=wrap;html=1;fillColor=#d5e8d4;strokeColor=#82b366;" parent="1" vertex="1">
          <mxGeometry x="160" y="320" width="120" height="20" as="geometry" />
        </mxCell>
        <mxCell id="zmIVW-F3Dh3AxXfq3nci-2" style="edgeStyle=orthogonalEdgeStyle;rounded=0;orthogonalLoop=1;jettySize=auto;html=1;exitX=0.25;exitY=1;exitDx=0;exitDy=0;" parent="1" source="OFOzZD7KPI6urneeMiuu-3" target="nEzC0ryJg-wvvqGHbRVC-4" edge="1">
          <mxGeometry relative="1" as="geometry" />
        </mxCell>
        <mxCell id="zmIVW-F3Dh3AxXfq3nci-3" style="edgeStyle=orthogonalEdgeStyle;rounded=0;orthogonalLoop=1;jettySize=auto;html=1;exitX=0.75;exitY=1;exitDx=0;exitDy=0;" parent="1" source="OFOzZD7KPI6urneeMiuu-3" target="zmIVW-F3Dh3AxXfq3nci-1" edge="1">
          <mxGeometry relative="1" as="geometry" />
        </mxCell>
        <mxCell id="OFOzZD7KPI6urneeMiuu-3" value="main" style="rounded=1;whiteSpace=wrap;html=1;fillColor=#d5e8d4;strokeColor=#82b366;" parent="1" vertex="1">
          <mxGeometry x="320" y="320" width="120" height="20" as="geometry" />
        </mxCell>
        <mxCell id="OFOzZD7KPI6urneeMiuu-4" value="footer" style="rounded=1;whiteSpace=wrap;html=1;fillColor=#d5e8d4;strokeColor=#82b366;" parent="1" vertex="1">
          <mxGeometry x="480" y="320" width="120" height="20" as="geometry" />
        </mxCell>
        <mxCell id="nEzC0ryJg-wvvqGHbRVC-4" value="Title" style="rounded=1;whiteSpace=wrap;html=1;fillColor=#dae8fc;strokeColor=#6c8ebf;" parent="1" vertex="1">
          <mxGeometry x="240" y="380" width="120" height="20" as="geometry" />
        </mxCell>
        <mxCell id="CfRBk4fBBFnoC-t1ROjV-1" style="edgeStyle=orthogonalEdgeStyle;rounded=0;orthogonalLoop=1;jettySize=auto;html=1;exitX=0.5;exitY=1;exitDx=0;exitDy=0;" parent="1" source="0NhiAJO0DxjFNw-YQ3sq-1" target="zmIVW-F3Dh3AxXfq3nci-5" edge="1">
          <mxGeometry relative="1" as="geometry">
            <mxPoint x="440" y="440" as="sourcePoint" />
          </mxGeometry>
        </mxCell>
        <mxCell id="ajmLZI5FQjfaDa6bgPTR-2" style="edgeStyle=orthogonalEdgeStyle;rounded=0;orthogonalLoop=1;jettySize=auto;html=1;exitX=0.5;exitY=1;exitDx=0;exitDy=0;" parent="1" source="0NhiAJO0DxjFNw-YQ3sq-3" target="zmIVW-F3Dh3AxXfq3nci-6" edge="1">
          <mxGeometry relative="1" as="geometry">
            <mxPoint x="720" y="480" as="sourcePoint" />
          </mxGeometry>
        </mxCell>
        <mxCell id="0NhiAJO0DxjFNw-YQ3sq-4" style="edgeStyle=orthogonalEdgeStyle;rounded=0;orthogonalLoop=1;jettySize=auto;html=1;exitX=0.5;exitY=1;exitDx=0;exitDy=0;" edge="1" parent="1" source="zmIVW-F3Dh3AxXfq3nci-1" target="0NhiAJO0DxjFNw-YQ3sq-1">
          <mxGeometry relative="1" as="geometry" />
        </mxCell>
        <mxCell id="0NhiAJO0DxjFNw-YQ3sq-5" style="edgeStyle=orthogonalEdgeStyle;rounded=0;orthogonalLoop=1;jettySize=auto;html=1;exitX=0.75;exitY=1;exitDx=0;exitDy=0;" edge="1" parent="1" source="zmIVW-F3Dh3AxXfq3nci-1" target="0NhiAJO0DxjFNw-YQ3sq-3">
          <mxGeometry relative="1" as="geometry" />
        </mxCell>
        <mxCell id="zmIVW-F3Dh3AxXfq3nci-1" value="Song List" style="rounded=1;whiteSpace=wrap;html=1;fillColor=#dae8fc;strokeColor=#6c8ebf;" parent="1" vertex="1">
          <mxGeometry x="400" y="380" width="120" height="20" as="geometry" />
        </mxCell>
        <mxCell id="ajmLZI5FQjfaDa6bgPTR-3" style="edgeStyle=orthogonalEdgeStyle;rounded=0;orthogonalLoop=1;jettySize=auto;html=1;exitX=0.5;exitY=1;exitDx=0;exitDy=0;" parent="1" source="0NhiAJO0DxjFNw-YQ3sq-6" target="zmIVW-F3Dh3AxXfq3nci-7" edge="1">
          <mxGeometry relative="1" as="geometry" />
        </mxCell>
        <mxCell id="ajmLZI5FQjfaDa6bgPTR-4" style="edgeStyle=orthogonalEdgeStyle;rounded=0;orthogonalLoop=1;jettySize=auto;html=1;exitX=0.75;exitY=1;exitDx=0;exitDy=0;" parent="1" source="zmIVW-F3Dh3AxXfq3nci-5" target="ajmLZI5FQjfaDa6bgPTR-1" edge="1">
          <mxGeometry relative="1" as="geometry" />
        </mxCell>
        <mxCell id="zmIVW-F3Dh3AxXfq3nci-5" value="Song" style="rounded=1;whiteSpace=wrap;html=1;fillColor=#f0a30a;strokeColor=#BD7000;fontColor=#000000;" parent="1" vertex="1">
          <mxGeometry x="400" y="500" width="120" height="20" as="geometry" />
        </mxCell>
        <mxCell id="zmIVW-F3Dh3AxXfq3nci-6" value="Song" style="rounded=1;whiteSpace=wrap;html=1;fillColor=#f0a30a;strokeColor=#BD7000;fontColor=#000000;" parent="1" vertex="1">
          <mxGeometry x="560" y="500" width="120" height="20" as="geometry" />
        </mxCell>
        <mxCell id="juRbCAvYL5PFnfWAzJx6-1" style="edgeStyle=orthogonalEdgeStyle;rounded=0;orthogonalLoop=1;jettySize=auto;html=1;exitX=0.25;exitY=1;exitDx=0;exitDy=0;" parent="1" source="zmIVW-F3Dh3AxXfq3nci-7" target="kerKnavNlQIlN_pHTmRB-1" edge="1">
          <mxGeometry relative="1" as="geometry" />
        </mxCell>
        <mxCell id="juRbCAvYL5PFnfWAzJx6-2" style="edgeStyle=orthogonalEdgeStyle;rounded=0;orthogonalLoop=1;jettySize=auto;html=1;exitX=0.75;exitY=1;exitDx=0;exitDy=0;" parent="1" source="zmIVW-F3Dh3AxXfq3nci-7" target="kerKnavNlQIlN_pHTmRB-2" edge="1">
          <mxGeometry relative="1" as="geometry" />
        </mxCell>
        <mxCell id="zmIVW-F3Dh3AxXfq3nci-7" value="Song Details" style="rounded=1;whiteSpace=wrap;html=1;fillColor=#60a917;fontColor=#ffffff;strokeColor=#2D7600;" parent="1" vertex="1">
          <mxGeometry x="320" y="620" width="120" height="20" as="geometry" />
        </mxCell>
        <mxCell id="ajmLZI5FQjfaDa6bgPTR-1" value="Media Player" style="rounded=1;whiteSpace=wrap;html=1;fillColor=#60a917;fontColor=#ffffff;strokeColor=#2D7600;" parent="1" vertex="1">
          <mxGeometry x="480" y="560" width="120" height="20" as="geometry" />
        </mxCell>
        <mxCell id="kerKnavNlQIlN_pHTmRB-1" value="Song Name" style="rounded=1;whiteSpace=wrap;html=1;fillColor=#1ba1e2;fontColor=#ffffff;strokeColor=#006EAF;" parent="1" vertex="1">
          <mxGeometry x="240" y="680" width="120" height="20" as="geometry" />
        </mxCell>
        <mxCell id="aUZTjl7lwAMQlIQt7JZH-3" style="edgeStyle=orthogonalEdgeStyle;rounded=0;orthogonalLoop=1;jettySize=auto;html=1;exitX=0.5;exitY=1;exitDx=0;exitDy=0;" parent="1" source="kerKnavNlQIlN_pHTmRB-2" target="aUZTjl7lwAMQlIQt7JZH-1" edge="1">
          <mxGeometry relative="1" as="geometry" />
        </mxCell>
        <mxCell id="kerKnavNlQIlN_pHTmRB-2" value="Song Link List" style="rounded=1;whiteSpace=wrap;html=1;fillColor=#1ba1e2;fontColor=#ffffff;strokeColor=#006EAF;" parent="1" vertex="1">
          <mxGeometry x="400" y="680" width="120" height="20" as="geometry" />
        </mxCell>
        <mxCell id="aUZTjl7lwAMQlIQt7JZH-1" value="Link 1" style="rounded=1;whiteSpace=wrap;html=1;fillColor=#6a00ff;fontColor=#ffffff;strokeColor=#3700CC;" parent="1" vertex="1">
          <mxGeometry x="400" y="740" width="120" height="20" as="geometry" />
        </mxCell>
        <mxCell id="aUZTjl7lwAMQlIQt7JZH-2" value="Link 2 ..." style="rounded=1;whiteSpace=wrap;html=1;fillColor=#6a00ff;fontColor=#ffffff;strokeColor=#3700CC;" parent="1" vertex="1">
          <mxGeometry x="560" y="740" width="120" height="20" as="geometry" />
        </mxCell>
        <mxCell id="aUZTjl7lwAMQlIQt7JZH-4" style="edgeStyle=orthogonalEdgeStyle;rounded=0;orthogonalLoop=1;jettySize=auto;html=1;exitX=0.75;exitY=1;exitDx=0;exitDy=0;" parent="1" source="kerKnavNlQIlN_pHTmRB-2" target="aUZTjl7lwAMQlIQt7JZH-2" edge="1">
          <mxGeometry relative="1" as="geometry" />
        </mxCell>
        <mxCell id="0NhiAJO0DxjFNw-YQ3sq-1" value="Song-Item 1" style="rounded=1;whiteSpace=wrap;html=1;fillColor=#f0a30a;strokeColor=#BD7000;fontColor=#000000;" vertex="1" parent="1">
          <mxGeometry x="400" y="440" width="120" height="20" as="geometry" />
        </mxCell>
        <mxCell id="0NhiAJO0DxjFNw-YQ3sq-3" value="Song-Item&amp;nbsp;&amp;nbsp;2 ..." style="rounded=1;whiteSpace=wrap;html=1;fillColor=#f0a30a;strokeColor=#BD7000;fontColor=#000000;" vertex="1" parent="1">
          <mxGeometry x="560" y="440" width="120" height="20" as="geometry" />
        </mxCell>
        <mxCell id="0NhiAJO0DxjFNw-YQ3sq-7" value="" style="edgeStyle=orthogonalEdgeStyle;rounded=0;orthogonalLoop=1;jettySize=auto;html=1;exitX=0.25;exitY=1;exitDx=0;exitDy=0;" edge="1" parent="1" source="zmIVW-F3Dh3AxXfq3nci-5" target="0NhiAJO0DxjFNw-YQ3sq-6">
          <mxGeometry relative="1" as="geometry">
            <mxPoint x="430" y="520" as="sourcePoint" />
            <mxPoint x="380" y="620" as="targetPoint" />
          </mxGeometry>
        </mxCell>
        <mxCell id="0NhiAJO0DxjFNw-YQ3sq-6" value="Song Details Box" style="rounded=1;whiteSpace=wrap;html=1;fillColor=#60a917;fontColor=#ffffff;strokeColor=#2D7600;" vertex="1" parent="1">
          <mxGeometry x="320" y="560" width="120" height="20" as="geometry" />
        </mxCell>
      </root>
    </mxGraphModel>
  </diagram>
  <diagram id="Uv6oS6ml3dLzNTOpAgnl" name="Visualized">
    <mxGraphModel dx="1272" dy="785" grid="1" gridSize="10" guides="1" tooltips="1" connect="1" arrows="1" fold="1" page="1" pageScale="1" pageWidth="850" pageHeight="1100" math="0" shadow="0">
      <root>
        <mxCell id="0" />
        <mxCell id="1" parent="0" />
        <mxCell id="vCiuWygyH0_Ejgjw4BBh-1" value="" style="rounded=0;whiteSpace=wrap;html=1;fillColor=#fff2cc;strokeColor=#d6b656;" vertex="1" parent="1">
          <mxGeometry x="80" y="40" width="680" height="880" as="geometry" />
        </mxCell>
        <mxCell id="vCiuWygyH0_Ejgjw4BBh-2" value="" style="rounded=0;whiteSpace=wrap;html=1;fillColor=#d5e8d4;strokeColor=#82b366;" vertex="1" parent="1">
          <mxGeometry x="90" y="50" width="660" height="60" as="geometry" />
        </mxCell>
        <mxCell id="vCiuWygyH0_Ejgjw4BBh-3" value="" style="rounded=0;whiteSpace=wrap;html=1;fillColor=#d5e8d4;strokeColor=#82b366;" vertex="1" parent="1">
          <mxGeometry x="90" y="120" width="660" height="720" as="geometry" />
        </mxCell>
        <mxCell id="vCiuWygyH0_Ejgjw4BBh-4" value="" style="rounded=0;whiteSpace=wrap;html=1;fillColor=#d5e8d4;strokeColor=#82b366;" vertex="1" parent="1">
          <mxGeometry x="90" y="850" width="660" height="60" as="geometry" />
        </mxCell>
        <mxCell id="vCiuWygyH0_Ejgjw4BBh-5" value="" style="rounded=0;whiteSpace=wrap;html=1;fillColor=#dae8fc;strokeColor=#6c8ebf;" vertex="1" parent="1">
          <mxGeometry x="360" y="130" width="120" height="20" as="geometry" />
        </mxCell>
        <mxCell id="vCiuWygyH0_Ejgjw4BBh-6" value="" style="rounded=0;whiteSpace=wrap;html=1;fillColor=#dae8fc;strokeColor=#6c8ebf;" vertex="1" parent="1">
          <mxGeometry x="190" y="170" width="470" height="660" as="geometry" />
        </mxCell>
        <mxCell id="vCiuWygyH0_Ejgjw4BBh-11" value="" style="rounded=0;whiteSpace=wrap;html=1;fillColor=#f0a30a;strokeColor=#BD7000;fontColor=#000000;" vertex="1" parent="1">
          <mxGeometry x="200" y="660" width="450" height="90" as="geometry" />
        </mxCell>
        <mxCell id="vCiuWygyH0_Ejgjw4BBh-14" value="" style="rounded=0;whiteSpace=wrap;html=1;fillColor=#60a917;strokeColor=#2D7600;fontColor=#ffffff;" vertex="1" parent="1">
          <mxGeometry x="210" y="670" width="160" height="70" as="geometry" />
        </mxCell>
        <mxCell id="vCiuWygyH0_Ejgjw4BBh-15" value="" style="rounded=0;whiteSpace=wrap;html=1;fillColor=#1ba1e2;strokeColor=#006EAF;fontColor=#ffffff;" vertex="1" parent="1">
          <mxGeometry x="230" y="680" width="120" height="20" as="geometry" />
        </mxCell>
        <mxCell id="vCiuWygyH0_Ejgjw4BBh-16" value="" style="rounded=0;whiteSpace=wrap;html=1;fillColor=#1ba1e2;strokeColor=#006EAF;fontColor=#ffffff;" vertex="1" parent="1">
          <mxGeometry x="230" y="710" width="120" height="20" as="geometry" />
        </mxCell>
        <mxCell id="vCiuWygyH0_Ejgjw4BBh-17" value="" style="rounded=0;whiteSpace=wrap;html=1;fillColor=#60a917;strokeColor=#2D7600;fontColor=#ffffff;" vertex="1" parent="1">
          <mxGeometry x="390" y="670" width="130" height="70" as="geometry" />
        </mxCell>
        <mxCell id="vCiuWygyH0_Ejgjw4BBh-18" value="" style="rounded=0;whiteSpace=wrap;html=1;fillColor=#6a00ff;strokeColor=#3700CC;fontColor=#ffffff;" vertex="1" parent="1">
          <mxGeometry x="240" y="715" width="10" height="10" as="geometry" />
        </mxCell>
        <mxCell id="vCiuWygyH0_Ejgjw4BBh-19" value="" style="rounded=0;whiteSpace=wrap;html=1;fillColor=#6a00ff;strokeColor=#3700CC;fontColor=#ffffff;" vertex="1" parent="1">
          <mxGeometry x="260" y="715" width="10" height="10" as="geometry" />
        </mxCell>
        <mxCell id="vCiuWygyH0_Ejgjw4BBh-20" value="" style="rounded=0;whiteSpace=wrap;html=1;fillColor=#6a00ff;strokeColor=#3700CC;fontColor=#ffffff;" vertex="1" parent="1">
          <mxGeometry x="280" y="715" width="10" height="10" as="geometry" />
        </mxCell>
        <mxCell id="vCiuWygyH0_Ejgjw4BBh-21" value="" style="rounded=0;whiteSpace=wrap;html=1;fillColor=#f0a30a;strokeColor=#BD7000;fontColor=#000000;" vertex="1" parent="1">
          <mxGeometry x="200" y="540" width="450" height="90" as="geometry" />
        </mxCell>
        <mxCell id="vCiuWygyH0_Ejgjw4BBh-22" value="" style="rounded=0;whiteSpace=wrap;html=1;fillColor=#60a917;strokeColor=#2D7600;fontColor=#ffffff;" vertex="1" parent="1">
          <mxGeometry x="210" y="550" width="160" height="70" as="geometry" />
        </mxCell>
        <mxCell id="vCiuWygyH0_Ejgjw4BBh-23" value="" style="rounded=0;whiteSpace=wrap;html=1;fillColor=#1ba1e2;strokeColor=#006EAF;fontColor=#ffffff;" vertex="1" parent="1">
          <mxGeometry x="230" y="560" width="120" height="20" as="geometry" />
        </mxCell>
        <mxCell id="vCiuWygyH0_Ejgjw4BBh-24" value="" style="rounded=0;whiteSpace=wrap;html=1;fillColor=#1ba1e2;strokeColor=#006EAF;fontColor=#ffffff;" vertex="1" parent="1">
          <mxGeometry x="230" y="590" width="120" height="20" as="geometry" />
        </mxCell>
        <mxCell id="vCiuWygyH0_Ejgjw4BBh-25" value="" style="rounded=0;whiteSpace=wrap;html=1;fillColor=#60a917;strokeColor=#2D7600;fontColor=#ffffff;" vertex="1" parent="1">
          <mxGeometry x="390" y="550" width="130" height="70" as="geometry" />
        </mxCell>
        <mxCell id="vCiuWygyH0_Ejgjw4BBh-26" value="" style="rounded=0;whiteSpace=wrap;html=1;fillColor=#6a00ff;strokeColor=#3700CC;fontColor=#ffffff;" vertex="1" parent="1">
          <mxGeometry x="240" y="595" width="10" height="10" as="geometry" />
        </mxCell>
        <mxCell id="vCiuWygyH0_Ejgjw4BBh-27" value="" style="rounded=0;whiteSpace=wrap;html=1;fillColor=#6a00ff;strokeColor=#3700CC;fontColor=#ffffff;" vertex="1" parent="1">
          <mxGeometry x="260" y="595" width="10" height="10" as="geometry" />
        </mxCell>
        <mxCell id="vCiuWygyH0_Ejgjw4BBh-28" value="" style="rounded=0;whiteSpace=wrap;html=1;fillColor=#6a00ff;strokeColor=#3700CC;fontColor=#ffffff;" vertex="1" parent="1">
          <mxGeometry x="280" y="595" width="10" height="10" as="geometry" />
        </mxCell>
        <mxCell id="vCiuWygyH0_Ejgjw4BBh-29" value="" style="rounded=0;whiteSpace=wrap;html=1;fillColor=#f0a30a;strokeColor=#BD7000;fontColor=#000000;" vertex="1" parent="1">
          <mxGeometry x="200" y="420" width="450" height="90" as="geometry" />
        </mxCell>
        <mxCell id="vCiuWygyH0_Ejgjw4BBh-30" value="" style="rounded=0;whiteSpace=wrap;html=1;fillColor=#60a917;strokeColor=#2D7600;fontColor=#ffffff;" vertex="1" parent="1">
          <mxGeometry x="210" y="430" width="160" height="70" as="geometry" />
        </mxCell>
        <mxCell id="vCiuWygyH0_Ejgjw4BBh-31" value="" style="rounded=0;whiteSpace=wrap;html=1;fillColor=#1ba1e2;strokeColor=#006EAF;fontColor=#ffffff;" vertex="1" parent="1">
          <mxGeometry x="230" y="440" width="120" height="20" as="geometry" />
        </mxCell>
        <mxCell id="vCiuWygyH0_Ejgjw4BBh-32" value="" style="rounded=0;whiteSpace=wrap;html=1;fillColor=#1ba1e2;strokeColor=#006EAF;fontColor=#ffffff;" vertex="1" parent="1">
          <mxGeometry x="230" y="470" width="120" height="20" as="geometry" />
        </mxCell>
        <mxCell id="vCiuWygyH0_Ejgjw4BBh-33" value="" style="rounded=0;whiteSpace=wrap;html=1;fillColor=#60a917;strokeColor=#2D7600;fontColor=#ffffff;" vertex="1" parent="1">
          <mxGeometry x="390" y="430" width="130" height="70" as="geometry" />
        </mxCell>
        <mxCell id="vCiuWygyH0_Ejgjw4BBh-34" value="" style="rounded=0;whiteSpace=wrap;html=1;fillColor=#6a00ff;strokeColor=#3700CC;fontColor=#ffffff;" vertex="1" parent="1">
          <mxGeometry x="240" y="475" width="10" height="10" as="geometry" />
        </mxCell>
        <mxCell id="vCiuWygyH0_Ejgjw4BBh-35" value="" style="rounded=0;whiteSpace=wrap;html=1;fillColor=#6a00ff;strokeColor=#3700CC;fontColor=#ffffff;" vertex="1" parent="1">
          <mxGeometry x="260" y="475" width="10" height="10" as="geometry" />
        </mxCell>
        <mxCell id="vCiuWygyH0_Ejgjw4BBh-36" value="" style="rounded=0;whiteSpace=wrap;html=1;fillColor=#6a00ff;strokeColor=#3700CC;fontColor=#ffffff;" vertex="1" parent="1">
          <mxGeometry x="280" y="475" width="10" height="10" as="geometry" />
        </mxCell>
        <mxCell id="vCiuWygyH0_Ejgjw4BBh-37" value="" style="rounded=0;whiteSpace=wrap;html=1;fillColor=#f0a30a;strokeColor=#BD7000;fontColor=#000000;" vertex="1" parent="1">
          <mxGeometry x="200" y="300" width="450" height="90" as="geometry" />
        </mxCell>
        <mxCell id="vCiuWygyH0_Ejgjw4BBh-38" value="" style="rounded=0;whiteSpace=wrap;html=1;fillColor=#60a917;strokeColor=#2D7600;fontColor=#ffffff;" vertex="1" parent="1">
          <mxGeometry x="210" y="310" width="160" height="70" as="geometry" />
        </mxCell>
        <mxCell id="vCiuWygyH0_Ejgjw4BBh-39" value="" style="rounded=0;whiteSpace=wrap;html=1;fillColor=#1ba1e2;strokeColor=#006EAF;fontColor=#ffffff;" vertex="1" parent="1">
          <mxGeometry x="230" y="320" width="120" height="20" as="geometry" />
        </mxCell>
        <mxCell id="vCiuWygyH0_Ejgjw4BBh-40" value="" style="rounded=0;whiteSpace=wrap;html=1;fillColor=#1ba1e2;strokeColor=#006EAF;fontColor=#ffffff;" vertex="1" parent="1">
          <mxGeometry x="230" y="350" width="120" height="20" as="geometry" />
        </mxCell>
        <mxCell id="vCiuWygyH0_Ejgjw4BBh-41" value="" style="rounded=0;whiteSpace=wrap;html=1;fillColor=#60a917;strokeColor=#2D7600;fontColor=#ffffff;" vertex="1" parent="1">
          <mxGeometry x="390" y="310" width="130" height="70" as="geometry" />
        </mxCell>
        <mxCell id="vCiuWygyH0_Ejgjw4BBh-42" value="" style="rounded=0;whiteSpace=wrap;html=1;fillColor=#6a00ff;strokeColor=#3700CC;fontColor=#ffffff;" vertex="1" parent="1">
          <mxGeometry x="240" y="355" width="10" height="10" as="geometry" />
        </mxCell>
        <mxCell id="vCiuWygyH0_Ejgjw4BBh-43" value="" style="rounded=0;whiteSpace=wrap;html=1;fillColor=#6a00ff;strokeColor=#3700CC;fontColor=#ffffff;" vertex="1" parent="1">
          <mxGeometry x="260" y="355" width="10" height="10" as="geometry" />
        </mxCell>
        <mxCell id="vCiuWygyH0_Ejgjw4BBh-44" value="" style="rounded=0;whiteSpace=wrap;html=1;fillColor=#6a00ff;strokeColor=#3700CC;fontColor=#ffffff;" vertex="1" parent="1">
          <mxGeometry x="280" y="355" width="10" height="10" as="geometry" />
        </mxCell>
        <mxCell id="vCiuWygyH0_Ejgjw4BBh-45" value="" style="rounded=0;whiteSpace=wrap;html=1;fillColor=#f0a30a;strokeColor=#BD7000;fontColor=#000000;" vertex="1" parent="1">
          <mxGeometry x="200" y="180" width="450" height="90" as="geometry" />
        </mxCell>
        <mxCell id="vCiuWygyH0_Ejgjw4BBh-46" value="" style="rounded=0;whiteSpace=wrap;html=1;fillColor=#60a917;strokeColor=#2D7600;fontColor=#ffffff;" vertex="1" parent="1">
          <mxGeometry x="210" y="190" width="160" height="70" as="geometry" />
        </mxCell>
        <mxCell id="vCiuWygyH0_Ejgjw4BBh-47" value="" style="rounded=0;whiteSpace=wrap;html=1;fillColor=#1ba1e2;strokeColor=#006EAF;fontColor=#ffffff;" vertex="1" parent="1">
          <mxGeometry x="230" y="200" width="120" height="20" as="geometry" />
        </mxCell>
        <mxCell id="vCiuWygyH0_Ejgjw4BBh-48" value="" style="rounded=0;whiteSpace=wrap;html=1;fillColor=#1ba1e2;strokeColor=#006EAF;fontColor=#ffffff;" vertex="1" parent="1">
          <mxGeometry x="230" y="230" width="120" height="20" as="geometry" />
        </mxCell>
        <mxCell id="vCiuWygyH0_Ejgjw4BBh-49" value="" style="rounded=0;whiteSpace=wrap;html=1;fillColor=#60a917;strokeColor=#2D7600;fontColor=#ffffff;" vertex="1" parent="1">
          <mxGeometry x="390" y="190" width="130" height="70" as="geometry" />
        </mxCell>
        <mxCell id="vCiuWygyH0_Ejgjw4BBh-50" value="" style="rounded=0;whiteSpace=wrap;html=1;fillColor=#6a00ff;strokeColor=#3700CC;fontColor=#ffffff;" vertex="1" parent="1">
          <mxGeometry x="240" y="235" width="10" height="10" as="geometry" />
        </mxCell>
        <mxCell id="vCiuWygyH0_Ejgjw4BBh-51" value="" style="rounded=0;whiteSpace=wrap;html=1;fillColor=#6a00ff;strokeColor=#3700CC;fontColor=#ffffff;" vertex="1" parent="1">
          <mxGeometry x="260" y="235" width="10" height="10" as="geometry" />
        </mxCell>
        <mxCell id="vCiuWygyH0_Ejgjw4BBh-52" value="" style="rounded=0;whiteSpace=wrap;html=1;fillColor=#6a00ff;strokeColor=#3700CC;fontColor=#ffffff;" vertex="1" parent="1">
          <mxGeometry x="280" y="235" width="10" height="10" as="geometry" />
        </mxCell>
      </root>
    </mxGraphModel>
  </diagram>
</mxfile>
